# xmcd CD database file
#
# Track frame offsets:
#	182
#	9687
#	22982
#	33587
#	46927
#	55905
#	63605
#	73787
#	84370
#	96050
#	106170
#	119462
#	133360
#	144190
#	156430
#	165855
#	179060
#	191320
#	203180
#	215380
#	227980
#
# Disc length: 3202 seconds
#
# Revision: 3
# Processed by: cddbd v1.5.2PL0 Copyright (c) Steve Scherf et al.
# Submitted via: CDex 1.70beta2
#
DISCID=280c8015
DTITLE=Jim Reeves - Country Classics - CD 2 - (Golden memories of Jim Reeves)
DYEAR=1962
DGENRE=Country
TTITLE0=Dear Hearts And Gentle People - (1957)
TTITLE1=Danny Boy - (1961)
TTITLE2=Scarlet Ribbons (For Her Hair) - (1959)
TTITLE3=Old Tige - (1961)
TTITLE4=A Stranger's Just A Friend - (1964)
TTITLE5=Teach Me How To Pray - (1959)
TTITLE6=The Flowers, The Sunset, The Trees
TTITLE7=In The Garden
TTITLE8=An Evening Prayer - (1959)
TTITLE9=The Farmer And The Lord - (1961)
TTITLE10=My Cathedral - (1962)
TTITLE11=Whispering Hope - (1959)
TTITLE12=Take My Hand, Precious Lord - (1959)
TTITLE13=He Will - (1957)
TTITLE14=Padre Of Old San Antone - (1959)
TTITLE15=It's No Secret (What God Can Do) - (1964)
TTITLE16=Precious Memories - (1959)
TTITLE17=May The Good Lord Bless And Keep You - (1959)
TTITLE18=We Thank Thee - (1964)
TTITLE19=This World Is Not My Home - (1964)
TTITLE20=God Be With You (Till We Meet Again) - (1959)
EXTD=YEAR: 1962
EXTT0=
EXTT1=
EXTT2=
EXTT3=
EXTT4=
EXTT5=
EXTT6=
EXTT7=
EXTT8=
EXTT9=
EXTT10=
EXTT11=
EXTT12=
EXTT13=
EXTT14=
EXTT15=
EXTT16=
EXTT17=
EXTT18=
EXTT19=
EXTT20=
PLAYORDER=
